# xmcd CD database file
#
# Track frame offsets:
#	150
#	10522
#	22722
#	36390
#	46947
#	61440
#	73957
#	88442
#	101120
#	118010
#	142477
#	155040
#	173007
#	186735
#	206437
#	226457
#	247857
#	264885
#	285035
#	305232
#	317082
#
# Disc length: 4484 seconds
#
# Revision: 0
# Processed by: cddbd v1.5.2PL0 Copyright (c) Steve Scherf et al.
# Submitted via: CDex 1.51
#
DISCID=32118215
DTITLE=Various Artist - Dutch Jazz Masters - Great pianists
DYEAR=1999
DGENRE=Jazz
TTITLE0=1001 variations in modern rhythm - Melle Weersma
TTITLE1=Embassy Stomp - De AVRO Decibels and Nico de Rooij
TTITLE2=I got love - Ernst van 't Hoff and his orchestra
TTITLE3=Opus 34 - Dick Willebrandts and his orchestra
TTITLE4=Dufti Chris - Frans Elsen Quartet
TTITLE5=First fig - Rob Madna Trio
TTITLE6=L.M.R. - The Diamond Five and Cees Slinger
TTITLE7=Wade in the water - Das Klaus Weiss Trio and Rob Franken
TTITLE8=At break of day - Trio Paul Ruys
TTITLE9=Minor Rush - Rob Agerbeek Quintet
TTITLE10=The Conductor - Jasper van 't Hof
TTITLE11=Shiny stockings - Wim Overgaauw Quartet and Henk Elkerbout
TTITLE12=Improvisation on confirmation - Rein de Graaff
TTITLE13=Jive at five - Louis van Dijk and Pim Jacobs
TTITLE14=Cal's on - Bert van den Brink and Cor Bakker
TTITLE15=You and the night and the music - Lex Jasper Trio
TTITLE16=Staying alive - The Beets Brothers
TTITLE17=Ther will never be another you - Rob van Bavel
TTITLE18=Zuiderzee Blues - Rob van Kreeveld
TTITLE19=Some other time - Jan Huydts
TTITLE20=When it was now (exerpt) - Michiel Borstlap Sextet
EXTD=YEAR: 1999
EXTT0=
EXTT1=
EXTT2=
EXTT3=
EXTT4=
EXTT5=
EXTT6=
EXTT7=
EXTT8=
EXTT9=
EXTT10=
EXTT11=
EXTT12=
EXTT13=
EXTT14=
EXTT15=
EXTT16=
EXTT17=
EXTT18=
EXTT19=
EXTT20=
PLAYORDER=
